HIERARCHY
ROOT Hips
{
  OFFSET 57.8838 95.319 338.509
  CHANNELS 6 Xposition Yposition Zposition Zrotation Xrotation Yrotation
  JOINT LeftUpLeg
  {
    OFFSET 8.64259 1.95398 -2.38835
    CHANNELS 3 Zrotation Xrotation Yrotation
    JOINT LeftLeg
    {
      OFFSET 43.7702 0 0
      CHANNELS 3 Zrotation Xrotation Yrotation
      JOINT LeftFoot
      {
        OFFSET 40.6238 0 0
        CHANNELS 3 Zrotation Xrotation Yrotation
        JOINT LeftToeBase
        {
          OFFSET 12.7242 0 0
          CHANNELS 3 Zrotation Xrotation Yrotation
          End Site
          {
            OFFSET 0 0 0
          }
        }
      }
    }
  }
  JOINT RightUpLeg
  {
    OFFSET -8.2249 1.95398 -2.59336
    CHANNELS 3 Zrotation Xrotation Yrotation
    JOINT RightLeg
    {
      OFFSET 43.5653 0 0
      CHANNELS 3 Zrotation Xrotation Yrotation
      JOINT RightFoot
      {
        OFFSET 40.6238 0 0
        CHANNELS 3 Zrotation Xrotation Yrotation
        JOINT RightToeBase
        {
          OFFSET 12.7242 0 0
          CHANNELS 3 Zrotation Xrotation Yrotation
          End Site
          {
            OFFSET 0 0 0
          }
        }
      }
    }
  }
  JOINT Spine
  {
    OFFSET 0.165834 0.87714 6.61349
    CHANNELS 3 Zrotation Xrotation Yrotation
    JOINT Spine1
    {
      OFFSET 7.38963 1.71661e-005 0
      CHANNELS 3 Zrotation Xrotation Yrotation
      JOINT Spine2
      {
        OFFSET 11.9445 1.14441e-005 0
        CHANNELS 3 Zrotation Xrotation Yrotation
        JOINT Spine3
        {
          OFFSET 14.7254 4.19617e-005 0
          CHANNELS 3 Zrotation Xrotation Yrotation
          JOINT Spine4
          {
            OFFSET 10.9679 0 0
            CHANNELS 3 Zrotation Xrotation Yrotation
            JOINT RightShoulder
            {
              OFFSET 2.46616 -1.6653 3.69651
              CHANNELS 3 Zrotation Xrotation Yrotation
              JOINT RightArm
              {
                OFFSET 13.0012 0 0
                CHANNELS 3 Zrotation Xrotation Yrotation
                JOINT RightForeArm
                {
                  OFFSET 28.7848 1.62311e-005 0
                  CHANNELS 3 Zrotation Xrotation Yrotation
                  JOINT RightHand
                  {
                    OFFSET 26.5688 1.62095e-005 0
                    CHANNELS 3 Zrotation Xrotation Yrotation
                    End Site
                    {
                      OFFSET 0 0 0
                    }
                  }
                }
              }
            }
            JOINT LeftShoulder
            {
              OFFSET 2.38034 -1.29275 -3.7523
              CHANNELS 3 Zrotation Xrotation Yrotation
              JOINT LeftArm
              {
                OFFSET 16.3182 6.07031e-005 0
                CHANNELS 3 Zrotation Xrotation Yrotation
                JOINT LeftForeArm
                {
                  OFFSET 27.0901 0 0
                  CHANNELS 3 Zrotation Xrotation Yrotation
                  JOINT LeftHand
                  {
                    OFFSET 24.5451 1.51738e-005 0
                    CHANNELS 3 Zrotation Xrotation Yrotation
                    End Site
                    {
                      OFFSET 0 0 0
                    }
                  }
                }
              }
            }
            JOINT Neck
            {
              OFFSET 5.0226 -0.0266342 0
              CHANNELS 3 Zrotation Xrotation Yrotation
              JOINT Head
              {
                OFFSET 6.69364 2.86102e-005 0
                CHANNELS 3 Zrotation Xrotation Yrotation
                End Site
                {
                  OFFSET 0 0 0
                }
              }
            }
          }
        }
      }
    }
  }
}
MOTION
Frames:	6
Frame Time:	0.0416667
-124.196 84.0368 -121.465 -166.913 68.0142 -27.8512 178.308 23.5571 87.6273 -50.8912 11.7998 3.47901 54.0757 -4.71532 4.4521 48.1251 10.1195 15.8447 175.323 23.4442 92.7877 -73.5292 -19.1304 -1.86122 67.0006 -7.50817 -0.0864118 27.8191 1.06163 3.65671 -0.307409 9.21639 -90.543 8.43615 -0.85309 -1.02092 -3.23488 -0.89719 -0.982392 -25.7678 -0.506848 -1.23008 -5.75514 -0.506845 -1.2301 96.1494 -48.3996 -91.5339 12.1506 -1.68067 -5.25756 4.71635 -17.1721 -4.27534 -13.7084 -0.71683 0.913265 -81.5397 -54.9545 91.8028 -1.09811 -13.6684 -10.0147 16.0032 28.9131 -46.4098 16.9382 -1.26883 -11.2878 5.76144 -3.26544 -2.70913 -8.06351 -3.00848 5.76539 
-133.037 85.1884 -130.21 122.826 68.6759 44.4502 176.288 22.4257 97.7713 -29.3818 15.6596 4.94786 46.2686 -13.7017 -6.82892 43.6068 7.39404 14.7494 -179.28 24.1627 88.7585 -74.7892 -20.6593 -4.28296 75.6837 -18.4646 5.0644 31.2245 -3.22168 1.56103 0.945483 9.07546 -90.7775 8.73081 1.54127 -1.63886 -2.94052 1.46767 -1.70508 -25.4773 1.9625 -1.09993 -5.46462 1.9625 -1.09993 95.4012 -43.9589 -93.3621 9.52428 -7.30098 -22.3243 -0.206753 -11.3618 -19.0318 -12.8589 -0.349061 -2.05005 -81.056 -56.0773 92.5581 0.645099 -17.0207 -0.425259 5.9455 37.4002 -27.3 8.26631 -0.828976 -12.1997 2.05005 -12.5969 6.59261 -1.86756 -13.5385 -12.9691 
-142.604 83.4623 -138.888 91.1327 46.658 79.5217 178.332 17.8634 106.518 -27.9697 20.2403 7.9503 49.4527 -10.4834 -10.1252 51.2419 11.8556 15.0677 176.337 36.26 84.5706 -77.1106 -18.6802 -2.36024 81.3884 -21.8238 11.5788 36.2757 -10.6498 -4.82638 2.01847 9.29266 -91.1244 8.32739 3.53344 -2.44521 -3.34113 3.42242 -2.59841 -25.9103 4.10477 -1.26902 -5.89766 4.10477 -1.26903 94.6039 -39.3369 -95.5156 3.26812 -16.8701 -47.5401 -6.63275 -12.6098 -29.5541 -11.8383 -0.0161006 -5.35943 -81.499 -54.9996 91.8611 -9.08178 -23.0625 9.45048 -2.37573 33.7828 -9.38661 11.7859 -0.899082 -10.7797 1.63477 -21.0146 8.28665 1.68557 -22.6071 -26.2141 
-153.305 80.2846 -145.05 86.0372 36.2373 83.571 -178.224 25.8933 104.034 -43.5975 21.0074 4.99242 61.4533 3.79698 3.39971 61.2102 17.7697 15.9412 158.575 52.2514 88.2418 -77.5702 -11.6603 1.95481 71.4668 -17.599 -1.74402 41.0229 -16.465 -1.04795 1.42957 10.2963 -91.0531 6.29889 2.40999 -2.14583 -5.37181 2.31325 -2.24981 -27.9179 2.94335 -1.32215 -7.90526 2.94334 -1.32216 93.8711 -38.59 -96.9645 4.55614 -18.7592 -64.5663 -10.3559 -3.37645 -46.3045 -11.5241 0.00818166 -5.48439 -84.3698 -51.5504 87.3755 -27.5563 -31.2232 -8.02565 4.34909 40.8221 -0.445347 8.63082 -0.562998 -12.1824 6.63935 -23.8822 1.3153 3.47079 -24.6591 -25.8417 
-160.806 79.2083 -148.748 77.009 36.5947 87.0134 178.944 39.3694 98.2463 -52.5023 19.2316 3.19795 62.25 8.00436 8.376 61.799 18.3018 16.4977 139.737 63.2934 100.264 -77.9766 -6.02193 4.78776 70.8993 -15.088 -1.75284 38.3932 -12.6992 0.219449 0.733556 10.8569 -90.8017 5.16506 1.13441 -1.5951 -6.50641 1.06311 -1.64348 -29.0408 1.56132 -1.1805 -9.02809 1.56131 -1.18048 93.4621 -41.5143 -97.0762 1.05289 -26.0568 -70.594 -19.6932 -2.63267 -54.4589 -11.6035 -0.0482775 -4.87415 -89.3626 -48.8023 79.4341 -38.3367 -29.1112 -39.4345 12.0319 52.8522 0.0298104 8.09591 -0.394982 -12.1259 9.455 -24.838 -5.38488 7.90182 -24.6628 -21.2862 
-164.069 78.8758 -150.53 74.3075 33.56 86.195 -177.287 43.3564 94.3288 -54.7999 20.1512 0.779151 62.6235 8.9018 11.3181 62.6064 18.2746 14.8947 130.693 64.6309 109.898 -82.0743 -8.67457 4.46604 68.2047 -14.6695 -6.46691 41.8263 -18.2048 -3.4152 0.5677 11.8006 -90.4306 3.27458 0.963527 -0.840907 -8.39633 0.925591 -0.882506 -30.9332 1.1717 -0.512432 -10.9206 1.17171 -0.512441 93.3486 -46.0321 -96.3778 3.13961 -27.643 -70.3864 -11.1304 -5.23315 -42.0948 -15.3175 -0.76929 -0.682127 -91.0231 -43.7244 75.6612 -43.3448 -18.8445 -67.2761 15.5819 48.6246 0.417203 13.0191 -0.570661 -10.7677 8.41438 -24.2733 -8.70153 15.1973 -24.1409 -17.3918 
